# xmcd CD database file
#
# Track frame offsets:
#	150
#	14231
#	29038
#	42055
#	66079
#	79424
#	94787
#	111275
#	124317
#	143410
#	161866
#	174955
#	190035
#
# Disc length: 2738 seconds
#
# Revision: 0
# Processed by: cddbd v1.5.2PL0 Copyright (c) Steve Scherf et al.
# Submitted via: CDex 1.51
#
DISCID=b30ab00d
DTITLE=Cormac Kenevey - The art of dreaming
DYEAR=2008
DGENRE=Jazz
TTITLE0=Relax
TTITLE1=The night we called it a day
TTITLE2=Moloko Soup
TTITLE3=Tír na nóg/The nearness of you
TTITLE4=In the extraoutosphere
TTITLE5=I fall in love too easily
TTITLE6=The dreamer
TTITLE7=This is it
TTITLE8=Centerpiece
TTITLE9=All of you
TTITLE10=The way you look tonight
TTITLE11=I've grown accustomed to her face
TTITLE12=Snuezy Blues
EXTD=YEAR: 2008
EXTT0=
EXTT1=
EXTT2=
EXTT3=
EXTT4=
EXTT5=
EXTT6=
EXTT7=
EXTT8=
EXTT9=
EXTT10=
EXTT11=
EXTT12=
PLAYORDER=
